<?xml version="1.0" standalone="no"?>
<!DOCTYPE svg PUBLIC "-//W3C//DTD SVG 20010904//EN"
 "http://www.w3.org/TR/2001/REC-SVG-20010904/DTD/svg10.dtd">
<svg version="1.0" xmlns="http://www.w3.org/2000/svg"
 width="1096.000000pt" height="1096.000000pt" viewBox="0 0 1096.000000 1096.000000"
 preserveAspectRatio="xMidYMid meet">
<metadata>
Created by potrace 1.11, written by Peter Selinger 2001-2013
</metadata>
<g transform="translate(0.000000,1096.000000) scale(0.100000,-0.100000)"
fill="#000000" stroke="none">
<path d="M5058 10780 c-135 -51 -236 -190 -254 -350 -1 -14 -3 -27 -4 -30 -1
-3 -2 -16 -1 -30 3 -107 28 -201 92 -335 62 -133 61 -139 -19 -149 -29 -3 -69
-13 -88 -21 -19 -8 -34 -12 -34 -9 0 15 -165 -94 -182 -120 -3 -6 -18 -24 -32
-41 -14 -16 -26 -33 -26 -37 0 -4 -8 -21 -18 -38 l-19 -30 -36 53 c-39 60
-121 144 -149 153 -10 3 -18 9 -18 14 0 7 -35 21 -44 17 -2 -1 -12 5 -22 14
-11 9 -35 20 -54 24 -19 4 -39 10 -45 13 -27 16 -228 22 -297 9 -261 -50 -479
-265 -560 -552 -19 -67 -33 -267 -19 -290 7 -13 9 -45 3 -45 -3 0 -19 11 -36
24 -123 93 -260 106 -376 35 -34 -21 -55 -28 -63 -22 -25 20 -135 38 -222 37
-181 -1 -344 -85 -450 -233 -29 -41 -78 -134 -78 -151 0 -3 -6 -25 -14 -49 -7
-24 -11 -46 -8 -49 2 -3 0 -13 -5 -23 -7 -11 -7 -20 0 -24 6 -3 6 -15 0 -29
-5 -13 -6 -27 -3 -30 3 -3 7 -22 9 -43 2 -21 12 -65 24 -97 19 -57 17 -72 -10
-77 -3 0 -18 -2 -33 -4 -31 -4 -147 -56 -172 -77 -87 -73 -140 -147 -169 -234
-34 -104 -23 -228 29 -339 24 -49 107 -145 150 -172 79 -50 206 -102 285 -117
14 -3 50 -11 80 -20 30 -8 58 -12 62 -10 3 2 9 0 13 -6 4 -6 11 -8 16 -5 5 4
9 2 9 -2 0 -5 10 -9 21 -10 36 -3 40 -17 23 -64 -11 -29 -17 -79 -17 -149 -1
-58 -3 -97 -5 -87 -2 9 -7 17 -11 17 -4 0 -13 11 -19 24 -14 32 -44 68 -115
138 -49 48 -62 56 -77 48 -13 -7 -17 -18 -14 -37 7 -44 36 -137 47 -150 5 -7
6 -13 2 -13 -4 0 -2 -7 5 -15 7 -8 9 -15 4 -15 -5 0 -4 -4 1 -8 6 -4 16 -18
22 -32 7 -14 23 -44 38 -67 l25 -42 -30 9 c-16 5 -30 6 -30 3 0 -3 -6 0 -14 6
-9 8 -16 8 -20 2 -4 -6 -12 -8 -19 -5 -20 7 -87 11 -87 5 0 -3 -19 -7 -41 -9
-23 -1 -54 -9 -70 -18 -16 -8 -29 -12 -29 -9 0 10 -89 -55 -126 -92 -67 -67
-132 -192 -150 -285 -18 -101 -20 -266 -4 -308 1 -3 2 -9 1 -13 -1 -5 4 -27
10 -50 7 -23 13 -47 15 -54 4 -22 67 -178 77 -191 12 -16 3 -27 -15 -16 -25
16 -83 21 -118 11 -39 -11 -48 -19 -42 -40 8 -33 67 -111 96 -127 28 -15 34
-30 12 -30 -22 0 -106 -40 -106 -50 0 -6 -4 -10 -10 -10 -13 0 -51 -39 -81
-86 -39 -58 -53 -109 -51 -187 2 -142 150 -258 290 -229 29 6 59 18 68 27 20
19 19 20 20 -14 1 -26 -4 -33 -50 -54 -87 -41 -103 -42 -121 -7 -9 16 -23 31
-33 31 -36 3 -57 -4 -69 -20 -11 -17 -17 -16 -80 16 -84 41 -184 60 -300 57
-119 -3 -239 -28 -290 -60 -13 -8 -23 -12 -23 -8 0 8 -93 -46 -102 -60 -4 -6
-8 -8 -8 -4 0 12 -46 -36 -53 -54 -4 -11 2 -26 16 -41 23 -25 124 -92 137 -92
5 0 12 -3 16 -8 4 -4 16 -7 26 -7 10 0 18 -4 18 -8 0 -5 6 -9 13 -9 6 0 23 -3
37 -7 114 -27 160 -33 241 -31 52 1 105 5 119 9 14 4 39 8 55 10 36 5 100 32
137 57 22 16 28 17 35 6 13 -22 52 -39 73 -32 19 6 46 43 42 57 -2 8 23 4 58
-10 28 -11 27 -11 58 -18 12 -4 22 -11 22 -16 0 -5 5 -6 10 -3 6 3 10 -2 11
-12 0 -10 2 -28 3 -41 3 -26 2 -26 -28 -7 -55 37 -133 36 -212 -1 -46 -22
-102 -78 -110 -111 -4 -12 -9 -23 -13 -23 -4 0 -7 -8 -8 -17 -1 -10 -3 -40 -5
-66 -3 -26 -1 -50 4 -53 5 -3 6 -10 3 -15 -12 -18 54 -135 99 -177 41 -39 97
-71 134 -78 27 -5 24 -14 -12 -35 -20 -11 -36 -24 -36 -28 0 -5 -9 -18 -20
-31 -26 -30 -36 -69 -23 -89 12 -19 102 -26 146 -11 31 10 32 8 13 -28 -31
-60 -78 -182 -71 -182 3 0 1 -8 -4 -18 -24 -45 -49 -292 -29 -292 3 0 4 -9 1
-20 -3 -11 -2 -28 2 -37 5 -10 7 -22 6 -27 -7 -30 69 -210 109 -259 59 -72
151 -137 220 -157 59 -17 177 -22 231 -11 57 13 67 10 47 -10 -36 -38 -102
-188 -124 -283 -15 -60 -10 -75 21 -76 13 0 67 51 117 111 50 58 51 59 67 92
8 15 17 27 20 27 4 0 6 -35 6 -77 -2 -99 7 -139 49 -233 13 -30 87 -112 94
-105 3 3 12 -1 21 -9 19 -16 98 -36 116 -29 12 4 85 -90 85 -109 0 -3 -14 -3
-31 2 -18 5 -36 7 -40 4 -5 -3 -9 0 -9 7 0 7 -4 8 -12 2 -7 -5 -28 -8 -45 -8
-18 1 -33 -2 -33 -7 0 -4 -6 -8 -14 -8 -30 0 -83 -41 -105 -80 -49 -88 -10
-178 94 -216 25 -9 33 -21 48 -67 29 -91 99 -141 173 -123 47 12 93 50 118 97
20 39 23 59 22 125 -2 44 -6 91 -10 107 -7 21 -5 27 8 27 9 0 16 -4 16 -10 0
-5 6 -10 14 -10 8 0 16 -4 18 -8 2 -4 20 -18 41 -31 25 -15 37 -30 38 -47 1
-13 2 -27 3 -31 32 -122 85 -180 211 -228 36 -14 49 -16 147 -18 54 -1 98 -4
98 -7 0 -3 -25 -21 -55 -40 -79 -49 -177 -147 -173 -173 2 -11 11 -21 21 -23
45 -6 246 72 329 128 l26 18 -6 -32 c-14 -76 -6 -227 14 -284 15 -40 74 -123
114 -160 71 -67 193 -128 278 -139 21 -3 48 -8 62 -12 34 -8 162 -7 230 2 67
9 215 57 282 91 28 14 52 23 54 21 3 -2 0 -16 -6 -31 -17 -47 -12 -114 10
-136 l21 -21 41 23 c22 13 57 42 77 65 l35 43 20 -53 c13 -37 38 -70 83 -115
36 -35 67 -61 70 -58 4 3 12 1 20 -5 7 -7 37 -17 66 -24 101 -23 186 0 249 69
59 64 91 180 63 227 -3 4 7 9 21 12 20 4 28 -1 36 -22 23 -54 21 -78 -6 -85
-19 -5 -27 -15 -32 -43 -6 -31 -3 -39 16 -55 l22 -18 -21 -36 c-12 -19 -21
-41 -21 -49 0 -7 -4 -15 -9 -17 -27 -9 -52 -249 -37 -348 13 -86 17 -103 22
-112 3 -5 8 -20 10 -35 7 -39 51 -129 87 -182 18 -25 35 -49 38 -53 3 -5 15
-10 27 -13 44 -8 135 136 173 276 19 67 24 110 24 209 0 166 -12 223 -66 323
l-21 38 21 18 c12 10 21 25 21 34 0 29 -23 67 -40 67 -19 0 -22 22 -9 66 8 26
16 33 42 36 l32 3 0 -65 c0 -248 292 -342 479 -154 46 45 93 130 88 157 -1 4
7 2 17 -5 11 -7 18 -15 16 -18 -7 -11 9 -26 63 -63 46 -31 56 -35 77 -25 14 6
26 19 26 30 1 10 2 33 3 51 2 17 -3 47 -11 66 -10 26 -10 32 0 28 176 -78 349
-129 385 -116 12 5 22 4 22 0 0 -5 12 -7 28 -5 32 6 50 6 77 0 11 -2 25 -1 30
3 6 3 19 6 30 7 48 2 103 16 152 39 29 13 53 21 53 17 0 -4 4 -2 8 3 4 6 27
23 52 39 67 43 154 140 165 186 1 3 7 18 14 35 24 59 30 153 16 254 -7 52 -6
54 10 38 9 -9 23 -17 31 -17 8 0 14 -3 14 -8 0 -4 26 -19 58 -33 69 -33 172
-70 172 -64 0 2 12 0 26 -6 34 -12 65 -3 62 19 -4 24 -102 120 -175 171 -35
24 -63 45 -63 46 0 1 28 1 63 -1 220 -11 379 93 395 260 4 37 9 50 23 53 11 3
19 9 19 13 0 4 10 11 23 17 22 10 22 10 21 -69 -1 -91 14 -135 67 -186 51 -50
149 -53 196 -7 23 24 53 81 53 103 0 16 6 22 21 22 40 0 98 23 133 52 59 48
66 128 17 196 -28 39 -109 80 -155 77 -20 -1 -36 2 -36 5 0 4 -24 1 -52 -7
-29 -8 -60 -15 -68 -15 -8 -1 -21 -6 -29 -12 -12 -9 -12 -7 -1 14 28 53 83
130 94 131 88 8 142 32 199 89 27 28 47 50 43 50 -3 0 3 18 14 40 11 22 18 40
15 40 -3 0 -1 9 5 20 6 11 13 61 15 111 2 50 6 93 8 95 2 2 20 -20 39 -49 51
-77 147 -169 172 -165 17 2 21 9 18 37 -6 73 -102 302 -136 323 -6 4 36 5 94
3 58 -2 126 0 152 5 50 10 132 45 161 70 73 61 110 107 150 185 25 50 59 154
56 171 -1 5 0 11 1 14 11 28 15 192 6 240 -3 14 -7 40 -10 59 -5 32 -20 87
-33 121 -3 8 -7 21 -9 28 -1 7 -16 42 -33 79 -17 36 -29 68 -27 70 2 3 14 -1
26 -7 33 -17 118 -15 140 5 18 17 17 46 -4 74 -25 32 -87 91 -96 91 -25 0 -6
17 38 32 56 20 121 73 162 133 32 47 59 142 53 190 -5 50 -25 115 -34 115 -5
0 -9 5 -9 10 0 34 -142 116 -186 107 -13 -2 -24 -1 -24 4 0 4 -13 4 -29 -1
-27 -8 -29 -6 -27 17 3 29 27 45 68 48 20 2 28 -2 28 -14 0 -9 12 -24 28 -33
29 -17 58 -12 81 16 10 12 17 13 35 4 11 -6 23 -14 26 -18 5 -7 103 -43 125
-46 6 -1 12 -3 15 -4 3 -1 16 -3 30 -4 14 0 30 -3 35 -6 14 -7 151 -5 205 3
152 23 283 78 360 151 17 15 30 32 30 38 0 24 -123 118 -155 118 -8 0 -15 3
-15 8 0 9 -124 48 -192 61 -143 26 -314 5 -430 -53 -59 -29 -67 -31 -71 -16
-7 25 -54 34 -83 15 -13 -8 -24 -22 -24 -30 0 -17 -25 -19 -66 -5 -24 9 -30
16 -31 43 l0 32 66 0 c73 1 125 22 175 71 59 60 88 172 60 241 -7 17 -10 34
-7 37 3 3 -9 28 -26 56 -28 45 -49 69 -97 109 -13 11 -98 55 -101 52 -2 0 -7
-1 -13 -1 -19 0 2 28 26 34 13 4 24 10 24 14 0 5 8 17 18 28 10 10 25 35 34
54 16 32 16 36 1 53 -9 10 -22 16 -29 13 -7 -3 -15 -2 -18 2 -10 9 -89 2 -104
-10 -25 -21 -21 0 18 91 22 50 42 102 44 114 3 12 5 22 6 22 2 0 17 62 26 110
16 91 1 276 -30 360 -5 11 -13 34 -19 50 -17 48 -86 147 -131 187 -22 20 -61
47 -86 59 -25 11 -53 25 -63 30 -27 14 -186 22 -239 11 -56 -11 -58 -6 -23 46
14 20 25 42 25 49 0 7 5 13 12 13 6 0 8 3 5 7 -4 3 -1 16 7 28 15 23 52 139
60 188 3 19 -1 30 -14 37 -16 9 -30 -1 -89 -61 -39 -39 -71 -75 -71 -79 0 -5
-6 -15 -14 -22 -7 -8 -21 -28 -30 -46 -9 -18 -18 -32 -19 -32 -2 0 -2 30 -1
68 1 37 -3 95 -9 130 -11 68 -10 72 22 75 11 1 21 5 21 10 0 4 5 5 10 2 6 -3
16 -3 23 2 6 4 17 8 22 10 35 7 55 12 95 23 46 12 58 15 120 26 19 4 40 9 45
13 6 3 12 6 15 6 52 6 203 84 257 132 51 47 115 131 108 143 -3 4 1 15 9 22
13 13 17 27 33 103 8 41 7 123 -2 165 -4 19 -8 41 -8 48 0 6 -4 12 -9 12 -4 0
-8 6 -8 14 0 38 -69 131 -143 193 -54 45 -169 94 -232 98 -14 1 -10 32 11 85
22 58 28 217 10 285 -54 206 -190 345 -401 413 -75 24 -243 20 -318 -7 -60
-21 -76 -19 -115 16 -39 36 -195 48 -253 19 -18 -9 -36 -16 -41 -16 -4 0 -30
-16 -57 -35 -26 -19 -51 -35 -53 -35 -3 0 -2 19 3 43 11 59 4 213 -11 267 -8
25 -14 47 -15 50 -5 25 -29 87 -36 95 -5 5 -9 17 -9 27 0 10 -3 18 -7 18 -5 0
-16 17 -26 38 -34 71 -135 182 -222 243 -49 34 -157 85 -202 94 -13 3 -33 8
-45 11 -47 12 -220 12 -269 -1 -27 -7 -52 -13 -55 -13 -13 1 -124 -47 -124
-54 0 -5 -6 -8 -13 -8 -30 0 -119 -86 -174 -169 l-35 -53 -16 33 c-9 19 -22
40 -29 47 -7 7 -20 25 -29 40 -17 28 -103 102 -118 101 -5 0 -12 3 -15 8 -17
25 -161 72 -223 73 -44 0 -42 30 7 134 55 120 81 197 91 271 1 11 3 22 4 25 2
7 -1 104 -4 121 -27 150 -109 270 -226 327 -159 78 -378 -6 -465 -178 -14 -28
-28 -50 -31 -50 -3 0 -14 20 -25 44 -28 64 -112 143 -189 180 -80 37 -179 44
-252 16z m284 -305 c22 -15 71 -58 110 -96 38 -38 71 -69 75 -69 3 0 33 28 67
63 88 88 113 107 158 123 51 18 90 18 132 0 37 -15 99 -66 91 -74 -3 -3 1 -15
8 -26 9 -14 13 -42 10 -81 -5 -82 -5 -85 -14 -85 -4 0 -11 -10 -14 -22 -6 -18
-143 -208 -164 -228 -12 -10 -68 -88 -116 -160 -28 -41 -56 -81 -62 -88 -7 -7
-17 -21 -22 -30 -9 -15 -12 -14 -30 8 -11 14 -25 31 -31 38 -17 20 -47 14 -69
-14 -17 -22 -23 -24 -33 -12 -27 27 -68 87 -68 97 0 6 -4 11 -8 11 -4 0 -16
15 -26 33 -18 30 -104 145 -134 177 -41 45 -123 165 -128 188 -4 15 -10 32
-14 37 -11 15 -8 97 4 125 38 86 97 123 184 116 35 -3 67 -13 94 -31z m-1363
-830 c20 -4 37 -6 39 -6 1 1 26 -11 55 -25 116 -59 185 -119 258 -226 21 -31
39 -59 39 -62 0 -3 18 -42 39 -88 88 -187 116 -267 94 -269 -4 0 -30 -2 -58
-4 -54 -4 -103 -15 -150 -35 -16 -8 -33 -14 -37 -14 -4 -1 -13 -7 -19 -13 -7
-7 -17 -13 -22 -13 -10 0 -99 -60 -108 -74 -4 -4 -23 -9 -43 -11 l-36 -2 1 61
c2 110 -28 186 -100 254 -63 60 -111 80 -206 85 -89 5 -222 -52 -273 -118 -11
-14 -22 -25 -25 -25 -6 0 0 114 8 160 4 19 8 47 10 61 2 14 13 51 24 83 57
164 174 264 331 283 25 3 46 6 48 8 4 4 92 -3 131 -10z m3281 1 c14 -1 32 -5
40 -8 8 -4 37 -14 64 -24 94 -34 207 -174 230 -285 3 -13 8 -35 11 -49 7 -31
12 -66 20 -154 6 -65 5 -69 -12 -55 -10 8 -27 25 -39 39 -26 30 -120 79 -161
83 -16 2 -33 5 -38 8 -14 7 -131 -3 -142 -12 -2 -1 -6 -2 -10 -4 -75 -20 -171
-121 -190 -199 -14 -59 -18 -143 -7 -178 4 -13 0 -16 -16 -13 -44 8 -64 18
-108 52 -54 41 -137 85 -146 76 -3 -4 -6 -1 -6 5 0 6 -17 14 -37 19 -49 9 -52
10 -58 13 -5 3 -47 7 -91 9 -24 1 -26 4 -21 34 3 17 16 57 30 87 23 50 37 87
39 100 1 3 12 22 25 43 13 20 21 37 18 37 -11 0 64 127 100 169 33 39 95 101
100 101 3 0 24 14 47 30 22 17 47 30 55 30 7 0 13 5 13 10 0 6 4 10 9 10 5 0
22 5 38 11 15 6 50 13 78 16 27 2 51 6 53 8 3 3 34 0 112 -9z m-2116 -80 c83
-40 195 -169 177 -205 -10 -22 -3 -245 9 -258 1 -2 3 -6 4 -10 1 -5 6 -23 10
-41 9 -40 34 -91 55 -115 14 -17 14 -20 -8 -36 -14 -11 -23 -28 -23 -45 0 -29
27 -66 49 -66 10 0 12 -6 8 -19 -3 -11 -8 -28 -10 -38 -13 -65 -45 -104 -89
-109 -20 -1 -36 -1 -36 1 0 2 10 21 22 42 13 21 24 53 25 73 3 44 -22 133 -45
162 -30 38 -76 78 -89 78 -7 0 -13 4 -13 8 0 11 -42 16 -120 16 -50 0 -77 -6
-118 -27 -56 -28 -72 -28 -87 2 -49 94 -75 151 -80 176 -13 54 -12 159 1 193
7 17 11 32 8 32 -8 0 44 95 65 117 87 91 187 116 285 69z m956 1 c53 -26 107
-81 135 -137 14 -27 23 -50 20 -50 -3 0 -1 -9 5 -20 26 -49 12 -236 -21 -276
-5 -6 -6 -14 -2 -17 3 -4 1 -7 -5 -7 -7 0 -12 -6 -12 -13 0 -8 -18 -39 -41
-71 l-41 -57 -31 21 c-18 12 -48 28 -67 37 -19 8 -42 19 -50 23 -8 4 -46 6
-85 6 -78 -2 -131 -24 -177 -73 -70 -73 -91 -202 -45 -271 l24 -38 -25 2 c-53
2 -93 142 -51 176 29 23 33 68 9 94 l-22 22 31 64 c39 79 62 191 61 288 -2
104 -2 107 13 122 7 7 28 33 47 58 19 25 45 53 57 63 13 10 29 24 36 31 44 43
171 56 237 23z m-953 -657 c15 -11 33 -30 41 -41 18 -26 27 -79 13 -79 -19 0
-70 -80 -67 -105 1 -13 10 -35 19 -49 30 -45 3 -28 -38 25 -22 28 -48 60 -59
72 -10 12 -30 38 -45 57 -14 19 -36 46 -48 60 -33 35 -29 48 20 69 54 24 128
20 164 -9z m865 9 c18 -7 44 -23 57 -35 l24 -23 -29 -38 c-41 -55 -57 -74 -76
-95 -10 -10 -18 -21 -18 -25 -1 -5 -18 -27 -39 -51 -32 -34 -45 -42 -70 -40
-23 2 -28 5 -20 15 6 7 13 29 14 50 4 42 -24 98 -55 108 -21 7 -20 26 5 79 31
64 124 89 207 55z m-2386 -27 c74 -40 123 -160 85 -208 -11 -14 -22 -25 -26
-24 -13 1 -83 -90 -107 -141 -24 -50 -31 -77 -44 -167 -4 -32 -32 -81 -46 -82
-6 0 -12 19 -23 78 -2 13 -7 33 -11 45 -4 12 -9 29 -10 37 -5 33 -15 77 -24
105 -5 17 -12 41 -14 55 -3 14 -10 43 -16 65 -7 22 -12 47 -12 55 0 23 67 163
85 178 36 30 111 32 163 4z m3958 -4 c12 -10 37 -54 57 -96 l35 -77 -39 -155
c-21 -85 -40 -163 -42 -173 -3 -10 -7 -28 -11 -39 -3 -11 -7 -31 -9 -44 -2
-24 -12 -41 -18 -33 -80 109 -107 148 -107 157 0 30 -45 124 -85 177 -42 56
-45 63 -41 110 2 27 9 62 15 77 15 40 83 106 117 113 16 4 34 8 39 10 20 7 69
-8 89 -27z m-4931 -23 c24 -10 38 -55 42 -141 4 -91 10 -126 30 -164 12 -23
12 -30 0 -46 -12 -17 -17 -17 -36 -6 -12 8 -34 15 -50 17 -76 10 -252 -68
-332 -147 -69 -68 -78 -58 -82 92 -3 124 8 183 48 252 60 102 185 162 318 152
25 -2 53 -6 62 -9z m5921 -1 c88 -19 174 -85 216 -164 35 -66 46 -250 22 -362
-4 -15 -38 7 -70 44 -22 25 -66 54 -128 84 -127 61 -195 74 -245 45 -24 -13
-28 -13 -42 1 -15 15 -15 19 0 48 18 38 23 66 27 180 2 51 8 86 15 88 6 2 11
10 11 17 0 29 101 39 194 19z m-5431 -49 c15 -4 27 -11 27 -15 0 -5 8 -11 18
-15 9 -3 34 -20 54 -38 36 -31 40 -42 52 -137 7 -53 20 -128 37 -213 11 -53
17 -102 14 -107 -4 -6 -16 -5 -33 4 -37 19 -121 29 -136 17 -11 -10 -26 4
-119 112 -13 16 -39 58 -58 95 -29 59 -34 77 -34 144 0 86 15 117 74 149 33
17 52 18 104 4z m4887 -13 c52 -39 69 -93 56 -185 -10 -70 -74 -178 -160 -271
-47 -50 -195 -176 -206 -176 -3 0 20 27 52 60 52 52 57 62 46 79 -6 10 -16 17
-22 15 -6 -2 -22 -5 -36 -8 -14 -2 -32 -6 -40 -8 -10 -2 -14 4 -12 17 1 11 4
34 6 50 2 17 5 30 6 30 1 0 3 7 5 15 2 13 5 31 20 120 4 26 10 67 20 135 4 27
15 47 33 62 15 12 35 30 45 39 10 9 37 24 60 35 47 22 89 19 127 -9z m-3522
-37 c38 -12 54 -23 65 -45 8 -16 13 -31 10 -33 -2 -3 -34 10 -71 29 -37 18
-72 34 -78 34 -7 0 -27 7 -45 15 l-34 14 51 1 c28 0 73 -7 102 -15z m2075 -10
c-39 -13 -84 -30 -100 -38 -61 -31 -77 -28 -28 4 27 19 52 34 55 35 3 0 12 3
20 7 20 8 58 14 95 15 20 1 6 -7 -42 -23z m330 -83 c86 -62 119 -100 70 -81
-30 11 -195 15 -253 5 -19 -3 -49 -8 -66 -11 -17 -2 -43 -9 -58 -14 -14 -6
-26 -8 -26 -5 0 2 -13 -2 -30 -11 -16 -9 -30 -13 -30 -9 0 4 -6 2 -12 -4 -18
-14 -85 -31 -93 -24 -4 4 -11 8 -16 8 -5 1 -13 2 -19 3 -5 0 -10 9 -10 19 0
12 29 31 98 63 149 71 227 102 287 114 16 3 32 8 34 11 10 10 50 -11 124 -64z
m-2648 47 c6 -4 23 -9 40 -13 16 -4 47 -16 70 -26 55 -25 119 -53 125 -55 3
-1 39 -18 82 -38 79 -37 102 -56 71 -58 -10 0 -27 -3 -38 -6 -40 -10 -71 -5
-140 20 -38 14 -83 29 -100 33 -16 4 -32 8 -35 9 -54 15 -223 24 -262 14 -21
-6 -25 -4 -21 7 3 8 8 14 12 14 3 0 20 14 38 30 18 17 37 30 42 30 6 0 11 5
11 10 0 6 5 10 11 10 6 0 17 6 24 13 13 14 51 17 70 6z m-574 -162 c-42 -80
-72 -127 -82 -127 -6 0 -5 9 1 20 6 11 8 20 5 20 -9 0 25 62 59 106 42 56 51
46 17 -19z m474 -52 c66 -9 101 -17 117 -26 9 -5 26 -9 37 -9 11 0 22 -4 25
-8 2 -4 -20 -9 -51 -10 -102 -4 -176 -33 -273 -107 -62 -47 -77 -56 -209 -120
l-94 -46 7 28 c4 15 16 37 27 49 10 11 19 24 19 28 0 8 111 148 144 182 24 24
49 35 90 40 16 2 31 5 32 7 4 4 86 -1 129 -8z m2842 0 c88 -14 166 -70 227
-162 25 -38 30 -53 38 -113 4 -32 -1 -31 -129 31 -56 27 -105 49 -109 49 -3 0
-28 15 -53 34 -106 76 -176 104 -264 107 -99 4 -49 27 126 57 42 8 107 6 164
-3z m-4247 -169 c14 -3 34 -8 45 -10 59 -11 135 -47 170 -80 22 -20 78 -63
125 -94 118 -79 118 -78 65 -91 -24 -6 -47 -15 -50 -21 -3 -5 -14 -10 -23 -10
-24 -1 -87 -66 -114 -119 -25 -47 -28 -48 -140 -42 -11 1 -19 13 -24 36 -3 19
-10 35 -15 35 -5 0 -9 5 -9 12 0 11 -58 68 -69 68 -3 0 -23 4 -43 9 -55 13
-109 -15 -143 -73 -17 -29 -34 -46 -46 -46 -10 0 -19 4 -19 9 0 5 -13 11 -28
14 -71 14 -127 104 -118 187 9 83 80 183 138 195 15 4 28 11 28 17 0 6 7 8 15
4 8 -3 15 -1 15 3 0 10 200 7 240 -3z m5820 -15 c66 -33 107 -78 130 -138 23
-62 25 -96 8 -144 -19 -54 -80 -105 -153 -125 -93 -27 -112 -28 -112 -9 0 33
-38 96 -72 120 -77 52 -177 20 -225 -73 -9 -18 -17 -35 -18 -39 -5 -30 -12
-43 -22 -44 -6 -1 -23 -2 -38 -3 -34 -3 -41 2 -56 40 -21 50 -74 102 -135 132
l-58 29 35 26 c19 15 39 27 45 27 5 0 15 8 20 18 6 9 11 13 11 7 0 -7 3 -7 8
0 4 6 28 25 54 43 26 18 63 48 82 66 60 56 208 95 356 92 78 -1 104 -6 140
-25z m-1220 -162 c0 -5 -6 -6 -13 -3 -8 3 -14 11 -14 19 0 11 4 12 14 4 7 -6
13 -15 13 -20z m-5255 -112 c35 -24 107 -87 100 -87 -3 0 14 -17 37 -37 24
-21 45 -41 48 -44 3 -4 27 -20 53 -37 37 -23 45 -32 34 -39 -19 -10 -37 -76
-31 -109 5 -26 28 -68 51 -92 16 -17 93 -51 118 -53 45 -3 -65 -18 -140 -20
-185 -3 -335 57 -454 181 -60 62 -87 153 -66 221 14 44 67 108 107 128 46 23
99 18 143 -12z m6989 10 c34 -17 84 -76 92 -107 0 -3 4 -12 7 -20 12 -28 16
-70 7 -75 -5 -3 -7 -12 -4 -19 12 -31 -100 -186 -133 -186 -6 0 -16 -6 -22
-14 -20 -24 -161 -87 -203 -92 -10 -1 -19 -3 -20 -4 -20 -20 -301 -10 -314 11
-3 5 -2 9 3 8 30 -7 100 45 124 92 19 39 24 115 7 125 -17 11 -6 23 47 53 31
17 97 71 148 120 135 128 183 148 261 108z m-5807 -49 c30 -28 29 -34 -8 -42
-26 -5 -94 -36 -192 -88 -15 -9 -38 -13 -52 -11 l-24 5 24 37 c39 57 142 117
209 120 11 1 30 -9 43 -21z m4634 -56 c14 -15 34 -39 44 -54 18 -29 14 -33
-25 -29 -12 2 -194 87 -209 98 -3 2 8 16 23 32 l28 29 56 -25 c31 -13 68 -37
83 -51z m435 -47 c43 -18 38 -29 -14 -32 -20 -1 -54 -3 -74 -5 -51 -6 -63 3
-40 30 11 12 22 19 26 15 3 -3 6 -2 6 4 0 14 50 7 96 -12z m-5643 -13 c15 -6
27 -13 27 -16 0 -2 -27 -3 -60 -2 -39 1 -60 5 -60 13 0 21 47 23 93 5z m557
-1 c-27 -22 -68 -32 -75 -20 -3 4 8 10 25 14 16 4 32 11 35 16 4 5 14 9 23 9
13 0 12 -5 -8 -19z m4540 -17 c0 -2 -7 -4 -15 -4 -8 0 -15 4 -15 10 0 5 7 7
15 4 8 -4 15 -8 15 -10z m-5255 -136 c17 -6 33 -12 38 -13 4 -2 9 -4 12 -5 3
-1 8 -3 13 -5 4 -1 20 -5 37 -10 16 -5 41 -9 55 -10 19 -1 24 -6 22 -21 -5
-23 -16 -31 -66 -45 -58 -16 -86 -17 -125 -7 -48 14 -70 44 -65 91 5 50 11 59
32 47 9 -6 31 -15 47 -22z m5967 -23 c7 -31 -17 -70 -53 -87 -36 -18 -89 -15
-151 7 -24 9 -47 17 -53 18 -20 5 -35 18 -35 31 0 10 20 13 73 13 61 0 105 5
115 13 1 2 5 3 10 5 17 5 48 17 62 25 18 9 26 3 32 -25z m-6095 -477 c15 -7
29 -13 31 -14 2 -1 -8 -26 -22 -55 -14 -30 -27 -63 -29 -74 -1 -11 -5 -24 -9
-30 -3 -5 -9 -28 -12 -50 -9 -55 -16 -75 -27 -75 -13 0 -17 133 -6 214 5 42
29 96 42 96 2 0 17 -5 32 -12z m6179 -50 c17 -99 8 -207 -12 -153 -5 11 -14
26 -21 33 -7 7 -19 34 -27 60 -8 26 -17 55 -21 64 -5 13 1 19 27 27 18 5 36
10 40 10 3 1 10 -18 14 -41z m-6057 4 c-8 -9 -16 -19 -19 -22 -3 -3 -16 -22
-30 -42 -14 -21 -29 -38 -33 -38 -5 0 -7 3 -5 8 23 46 29 61 37 82 6 18 17 26
36 28 25 2 26 0 14 -16z m6451 -396 c14 -4 35 -8 48 -11 35 -6 105 -50 145
-90 117 -117 165 -337 116 -533 -17 -71 -68 -207 -97 -259 -7 -12 -12 -29 -12
-37 0 -9 -4 -16 -10 -16 -5 0 -10 -10 -10 -22 -1 -21 -2 -21 -11 -6 -26 46
-36 104 -24 144 6 21 12 42 13 46 2 4 4 13 6 20 23 73 29 289 11 358 -7 28
-13 51 -13 53 -1 6 -25 65 -40 97 -9 19 -42 61 -74 92 -63 62 -133 95 -214
101 -37 3 -49 8 -55 24 -8 23 -1 26 77 39 21 3 40 7 41 8 4 4 77 -2 103 -8z
m-6875 -21 c17 -3 39 -9 50 -14 11 -5 28 -12 38 -15 9 -3 17 -11 17 -19 0 -10
-15 -13 -57 -12 -110 4 -211 -40 -283 -122 -40 -45 -84 -128 -94 -174 -3 -13
-10 -41 -15 -62 -10 -40 -7 -226 4 -292 4 -22 22 -86 42 -143 33 -97 34 -105
23 -159 -9 -40 -15 -52 -21 -42 -10 15 -83 161 -84 169 -1 3 -10 25 -22 50
-71 155 -88 228 -88 365 1 117 14 186 48 250 6 11 11 22 12 25 1 12 43 65 80
102 48 48 121 87 178 94 23 4 44 8 46 10 4 4 80 -3 126 -11z m6754 -111 c6 4
11 4 11 -1 0 -4 14 -14 31 -22 28 -12 83 -62 118 -106 49 -61 70 -219 46 -335
-12 -60 -25 -89 -25 -58 0 14 -17 59 -52 138 -6 14 -12 30 -14 35 -3 16 -62
142 -115 249 -37 74 -46 101 -37 107 7 4 15 3 19 -3 4 -6 12 -7 18 -4z m-6689
-12 c0 -17 -132 -262 -156 -291 -71 -83 -111 -185 -109 -283 0 -55 -7 -51 -28
17 -35 110 -41 224 -17 327 23 99 118 198 215 222 44 12 95 16 95 8z m7182
-1123 c31 -8 143 -89 123 -89 -3 0 -1 -8 4 -19 6 -10 15 -37 20 -60 8 -35 5
-48 -15 -89 -24 -49 -66 -82 -104 -82 -12 0 -33 13 -46 30 -14 16 -40 34 -57
38 -21 5 -33 15 -34 28 0 10 -4 36 -7 57 -26 166 -27 180 -15 188 17 10 89 9
131 -2z m-7650 -15 c71 -10 72 -11 52 -154 -3 -25 -7 -55 -7 -67 -1 -13 -4
-23 -7 -23 -4 0 -5 -15 -3 -32 3 -18 1 -28 -4 -23 -4 6 -19 15 -34 22 -42 18
-127 -22 -129 -61 0 -13 -70 3 -96 22 -52 38 -70 131 -38 198 32 68 91 111
163 120 19 2 37 6 39 9 3 2 8 2 13 0 4 -3 27 -8 51 -11z m-421 -578 c48 -5 95
-22 116 -43 10 -9 4 -15 -30 -28 -104 -39 -210 -39 -299 1 -29 13 -35 20 -27
30 11 13 56 31 99 39 12 2 25 6 27 9 3 2 19 2 36 0 18 -2 53 -6 78 -8z m8530
-4 c21 -5 47 -16 59 -25 l22 -15 -24 -15 c-38 -25 -104 -38 -177 -36 -74 2
-174 33 -168 52 2 7 31 21 64 33 65 21 156 24 224 6z m-8089 -4 c2 -7 1 -33
-3 -58 -3 -25 -7 -40 -7 -35 -2 13 -87 41 -134 44 -21 1 -21 3 -5 12 10 6 29
12 42 15 14 2 35 8 49 14 13 5 27 6 30 3 3 -4 6 -1 6 5 0 16 17 15 22 0z
m7601 -27 c4 0 15 -1 25 -1 27 -1 -6 -17 -49 -24 -32 -5 -35 -3 -33 17 1 12 3
23 3 24 1 1 11 -1 24 -6 12 -5 25 -9 30 -10z m114 -313 c85 -58 85 -186 0
-264 -47 -43 -95 -62 -157 -60 -61 1 -59 -5 -47 96 3 25 8 75 12 113 6 55 11
67 26 67 10 0 24 7 33 15 8 8 19 15 25 15 5 0 13 9 16 20 9 27 50 26 92 -2z
m-7804 -58 c34 -16 42 -16 66 -4 35 18 37 18 38 -8 0 -13 4 -48 8 -78 4 -30 8
-71 9 -91 1 -19 5 -39 7 -45 20 -37 -37 -63 -131 -58 -73 3 -121 25 -161 72
-82 98 -59 230 48 267 36 13 39 13 57 -12 11 -14 37 -33 59 -43z m182 -516
c20 -81 20 -90 5 -133 -8 -26 -18 -50 -22 -56 -30 -50 -62 -395 -38 -410 5 -3
7 -12 3 -20 -3 -8 0 -15 6 -15 6 0 8 -6 5 -14 -9 -23 61 -162 103 -204 44 -45
113 -90 145 -96 13 -3 23 -5 23 -6 0 -5 47 -12 93 -13 41 -1 52 -5 52 -18 0
-28 -114 -53 -210 -46 -150 12 -251 87 -324 242 -31 65 -39 113 -40 240 0 110
2 128 33 223 19 56 38 102 43 102 5 0 8 6 7 13 -1 6 5 28 14 47 8 19 15 39 15
44 0 5 4 12 9 15 7 5 33 54 38 71 5 17 29 59 32 56 2 -2 6 -12 8 -22z m7376
-104 c5 0 8 -3 7 -7 -3 -9 33 -105 41 -113 4 -3 8 -12 10 -20 2 -8 15 -46 29
-85 21 -60 25 -88 25 -195 1 -103 -5 -175 -13 -175 -1 0 -3 -9 -5 -19 -8 -43
-71 -149 -113 -191 -64 -65 -157 -104 -252 -108 -51 -1 -130 15 -130 27 0 20
32 43 67 49 90 17 207 107 244 187 41 89 61 149 54 160 -3 5 -1 11 3 14 7 4
10 241 3 241 -1 0 -4 18 -7 40 -2 22 -7 47 -11 55 -13 31 -14 74 -2 124 16 68
21 75 32 43 5 -15 13 -27 18 -27z m-7290 -217 c1 -18 5 -52 12 -103 2 -14 11
-40 21 -57 9 -18 13 -33 9 -33 -5 0 -3 -4 2 -8 21 -14 51 -69 126 -221 l75
-156 -32 -3 c-45 -4 -125 38 -180 95 -56 59 -85 134 -88 231 -3 65 0 93 18
187 2 11 9 32 14 46 6 15 8 30 5 33 -4 3 -1 6 5 6 7 0 12 -8 13 -17z m7167
-95 c7 -51 7 -180 0 -213 -21 -95 -79 -174 -166 -225 -29 -16 -52 -27 -49 -23
22 42 91 192 111 243 15 36 31 74 35 85 20 46 40 102 46 123 7 24 21 30 23 10z
m-6698 -870 c0 -11 5 -28 11 -39 6 -11 12 -29 14 -39 8 -40 85 -187 118 -224
9 -11 17 -23 17 -28 0 -11 -28 -10 -35 2 -3 6 -14 10 -24 10 -30 0 -99 80
-121 139 -20 52 -32 183 -22 225 5 18 6 18 24 -3 10 -13 18 -32 18 -43z m6223
-65 c-3 -27 -10 -56 -15 -65 -5 -10 -6 -18 -3 -18 11 0 -35 -80 -62 -106 -26
-26 -111 -70 -119 -61 -6 6 192 297 202 297 2 0 0 -21 -3 -47z m-6063 -133 c3
-3 23 -28 43 -57 21 -28 43 -54 50 -56 9 -3 9 -7 0 -17 -14 -15 -48 15 -78 70
-11 19 -22 37 -25 40 -9 9 -40 68 -40 75 0 4 10 -5 22 -21 12 -16 25 -31 28
-34z m304 -343 c59 -59 106 -110 103 -113 -3 -3 -29 12 -58 33 -29 21 -73 49
-97 63 -31 17 -61 47 -94 95 -26 38 -48 73 -48 77 0 20 38 10 60 -16 14 -17
74 -79 134 -139z m5339 3 c-3 -11 -24 -34 -47 -52 -71 -55 -73 -53 -11 10 33
34 61 62 62 62 0 0 -1 -9 -4 -20z m-5532 -32 c50 -14 63 -31 83 -100 25 -89
22 -134 -14 -170 -27 -27 -36 -30 -75 -26 -48 6 -109 43 -101 63 2 7 -7 23
-21 36 -28 27 -57 78 -49 87 3 3 2 10 -3 16 -4 6 -4 25 0 42 15 55 94 78 180
52z m5817 -2 c48 -25 60 -76 33 -136 -20 -45 -37 -62 -64 -65 -13 -2 -36 -16
-54 -32 -55 -52 -128 -59 -170 -17 -14 13 -18 34 -18 83 0 93 16 125 73 147
26 10 53 19 60 20 8 2 16 4 18 6 11 12 97 7 122 -6z m-5443 -136 c3 -6 -1 -7
-9 -4 -18 7 -21 14 -7 14 6 0 13 -4 16 -10z m25 -91 c50 -34 162 -92 199 -104
27 -8 100 -57 101 -66 0 -8 -112 -4 -151 5 -84 19 -178 94 -187 151 -2 11 -9
26 -14 33 -18 21 5 13 52 -19z m4937 16 c0 -8 -3 -15 -7 -15 -3 0 -12 -16 -19
-35 -15 -42 -82 -99 -142 -120 -24 -9 -73 -18 -108 -20 -63 -5 -64 -5 -46 15
10 11 20 18 23 16 2 -3 16 6 31 20 14 14 36 27 49 30 12 4 22 10 22 16 0 5 4
7 9 4 4 -3 29 8 55 24 26 17 50 30 54 30 4 1 21 12 37 25 35 29 42 30 42 10z
m-4338 -365 c4 0 7 -8 8 -17 1 -10 2 -35 4 -55 1 -21 5 -38 9 -38 4 0 7 -6 7
-14 0 -56 104 -175 189 -214 27 -13 56 -27 64 -31 8 -4 23 -7 33 -5 9 1 17 -1
17 -5 0 -10 7 -11 142 -15 65 -2 137 0 160 6 24 5 54 11 68 13 14 2 45 10 70
18 25 7 55 11 65 7 11 -4 23 -6 27 -4 4 3 9 0 13 -6 3 -5 15 -10 26 -10 41 0
15 -20 -88 -65 -143 -62 -247 -95 -310 -98 -29 -1 -53 -5 -53 -9 0 -4 -6 -5
-12 -3 -7 2 -44 6 -81 9 -70 6 -145 23 -162 38 -5 4 -17 8 -27 8 -10 0 -18 3
-18 8 0 4 -13 13 -28 19 -73 33 -161 156 -177 248 -16 92 5 231 33 220 7 -3
17 -5 21 -5z m3736 -37 c29 -153 -1 -267 -96 -364 -84 -86 -198 -130 -364
-141 -71 -5 -219 27 -303 65 -26 12 -50 22 -54 23 -5 1 -11 3 -15 4 -5 1 -11
2 -15 1 -5 0 -8 4 -8 9 0 6 -6 10 -13 10 -8 0 -36 11 -63 25 -27 14 -46 25
-41 25 13 0 16 1 67 16 48 14 57 14 138 -7 48 -12 118 -23 157 -25 39 -1 75
-3 80 -4 6 -2 12 -2 15 -1 3 1 28 4 57 6 63 5 162 37 221 72 89 51 171 171
177 260 4 66 49 85 60 26z m-3390 -140 c92 -41 130 -56 146 -59 8 -2 29 -10
45 -19 16 -8 38 -15 48 -15 30 0 6 -17 -34 -25 -164 -29 -303 -1 -386 80 -33
32 -89 115 -77 115 4 0 2 5 -5 12 -7 7 -12 19 -12 28 0 12 26 3 113 -40 62
-30 135 -65 162 -77z m3255 75 c-36 -88 -121 -161 -224 -192 -49 -15 -183 -14
-251 2 l-40 9 29 8 c16 4 41 14 55 21 14 8 31 14 37 14 6 0 28 9 50 19 21 11
42 17 46 14 5 -2 8 1 8 6 0 6 8 11 18 11 10 0 27 7 38 15 12 8 24 11 28 8 3
-3 6 -1 6 5 0 7 6 12 13 12 6 0 53 20 102 44 50 24 92 43 94 40 2 -2 -2 -18
-9 -36z m-2250 -354 c14 -3 47 -7 74 -9 57 -5 53 -3 57 -35 2 -14 20 -41 40
-61 35 -34 36 -37 24 -71 -22 -66 -68 -98 -138 -98 -77 0 -132 34 -182 115
-17 28 -29 133 -18 163 5 12 72 10 143 -4z m1125 5 c14 -15 6 -109 -13 -152
-25 -57 -46 -79 -97 -105 -79 -41 -148 -30 -200 31 -20 23 -33 47 -31 54 3 7
0 13 -7 13 -7 1 2 13 19 28 29 25 65 81 64 99 0 5 8 9 17 10 20 2 74 9 143 18
24 3 45 7 47 9 5 5 52 1 58 -5z m-619 -61 c-13 -72 -26 -93 -32 -54 -1 7 -5
28 -9 45 -6 28 -5 31 19 31 22 0 26 -4 22 -22z m10 -297 c17 -41 21 -71 19
-130 -1 -42 -5 -86 -8 -98 -7 -25 -36 -83 -42 -83 -3 0 -14 19 -26 41 -32 63
-35 176 -8 262 12 38 27 66 33 64 6 -2 21 -27 32 -56z"/>
</g>
</svg>
